<svg xmlns="http://www.w3.org/2000/svg" xmlns:xlink="http://www.w3.org/1999/xlink"><symbol viewBox="0 0 512 512" id="icon-anchor" xmlns="http://www.w3.org/2000/svg"><g class="fa-group"><path class="fa-secondary" fill="currentColor" d="M44.45 252.59l37.11-37.1c9.84-9.84 26.78-3.3 27.29 10.6a184.45 184.45 0 009.69 52.72 16.08 16.08 0 01-3.78 16.61l-13.09 13.09c-28 28-28.9 73.66-1.15 102a72.07 72.07 0 00102.32.51L270 343.79A72 72 0 00270 242a75.64 75.64 0 00-10.34-8.57 16 16 0 01-6.95-12.6A39.86 39.86 0 01264.45 191l21.06-21a16.06 16.06 0 0120.58-1.74A152.05 152.05 0 01327 400l-.36.37-67.2 67.2c-59.27 59.27-155.7 59.26-215 0s-59.26-155.72.01-214.98z" opacity=".4"/><path class="fa-primary" fill="currentColor" d="M410.33 203.49c28-28 28.9-73.66 1.15-102a72.07 72.07 0 00-102.32-.49L242 168.21A72 72 0 00242 270a75.64 75.64 0 0010.34 8.57 16 16 0 016.94 12.6A39.81 39.81 0 01247.55 321l-21.06 21.05a16.07 16.07 0 01-20.58 1.74A152.05 152.05 0 01185 112l.36-.37 67.2-67.2c59.27-59.27 155.7-59.26 215 0s59.27 155.7 0 215l-37.11 37.1c-9.84 9.84-26.78 3.3-27.29-10.6a184.45 184.45 0 00-9.69-52.72 16.08 16.08 0 013.78-16.61z"/></g></symbol><symbol class="icon-severity icon-severity-critical" viewBox="0 0 512 512" id="icon-severity-critical" xmlns="http://www.w3.org/2000/svg"><path fill="currentColor" d="M256 8C119 8 8 119 8 256s111 248 248 248 248-111 248-248S393 8 256 8zm121.6 313.1c4.7 4.7 4.7 12.3 0 17L338 377.6c-4.7 4.7-12.3 4.7-17 0L256 312l-65.1 65.6c-4.7 4.7-12.3 4.7-17 0L134.4 338c-4.7-4.7-4.7-12.3 0-17l65.6-65-65.6-65.1c-4.7-4.7-4.7-12.3 0-17l39.6-39.6c4.7-4.7 12.3-4.7 17 0l65 65.7 65.1-65.6c4.7-4.7 12.3-4.7 17 0l39.6 39.6c4.7 4.7 4.7 12.3 0 17L312 256l65.6 65.1z"/></symbol><symbol class="icon-severity icon-severity-minor" viewBox="0 0 512 512" id="icon-severity-minor" xmlns="http://www.w3.org/2000/svg"><path fill="currentColor" d="M256 8C119.043 8 8 119.083 8 256c0 136.997 111.043 248 248 248s248-111.003 248-248C504 119.083 392.957 8 256 8zm0 110c23.196 0 42 18.804 42 42s-18.804 42-42 42-42-18.804-42-42 18.804-42 42-42zm56 254c0 6.627-5.373 12-12 12h-88c-6.627 0-12-5.373-12-12v-24c0-6.627 5.373-12 12-12h12v-64h-12c-6.627 0-12-5.373-12-12v-24c0-6.627 5.373-12 12-12h64c6.627 0 12 5.373 12 12v100h12c6.627 0 12 5.373 12 12v24z"/></symbol><symbol class="icon-severity icon-severity-moderate" viewBox="0 0 512 512" id="icon-severity-moderate" xmlns="http://www.w3.org/2000/svg"><path fill="currentColor" d="M504 256c0 136.997-111.043 248-248 248S8 392.997 8 256C8 119.083 119.043 8 256 8s248 111.083 248 248zm-248 50c-25.405 0-46 20.595-46 46s20.595 46 46 46 46-20.595 46-46-20.595-46-46-46zm-43.673-165.346l7.418 136c.347 6.364 5.609 11.346 11.982 11.346h48.546c6.373 0 11.635-4.982 11.982-11.346l7.418-136c.375-6.874-5.098-12.654-11.982-12.654h-63.383c-6.884 0-12.356 5.78-11.981 12.654z"/></symbol><symbol class="icon-severity icon-severity-serious" viewBox="0 0 576 512" id="icon-severity-serious" xmlns="http://www.w3.org/2000/svg"><path fill="currentColor" d="M569.517 440.013C587.975 472.007 564.806 512 527.94 512H48.054c-36.937 0-59.999-40.055-41.577-71.987L246.423 23.985c18.467-32.009 64.72-31.951 83.154 0l239.94 416.028zM288 354c-25.405 0-46 20.595-46 46s20.595 46 46 46 46-20.595 46-46-20.595-46-46-46zm-43.673-165.346l7.418 136c.347 6.364 5.609 11.346 11.982 11.346h48.546c6.373 0 11.635-4.982 11.982-11.346l7.418-136c.375-6.874-5.098-12.654-11.982-12.654h-63.383c-6.884 0-12.356 5.78-11.981 12.654z"/></symbol></svg>